<?xml version="1.0" encoding="utf-8"?>
<!-- Generator: Adobe Illustrator 26.3.1, SVG Export Plug-In . SVG Version: 6.00 Build 0)  -->
<svg version="1.1" id="Ebene_1" xmlns="http://www.w3.org/2000/svg" xmlns:xlink="http://www.w3.org/1999/xlink" x="0px" y="0px"
	 viewBox="0 0 283.5 283.5" style="enable-background:new 0 0 283.5 283.5;" xml:space="preserve">
<style type="text/css">
	.st0{fill:#6D6D72;}
	.st1{fill:#C62A29;}
	.st2{fill:none;stroke:#6D6D72;stroke-width:20;stroke-miterlimit:10;}
</style>
<path class="st0" d="M64.8,271.5c-19.1,0-35.5-13.1-39.1-31.4c-3-15.9,2.2-29.1,14.9-39.3c0.8-0.7,1.2-1.3,1.2-2.4
	c0-6.9-0.1-13.7,0.1-20.6c0.4-23.8,0-47.6,0.4-71.5c0.3-23,0.1-46.1,0.3-69.1c0-3.1-0.1-6.2,0.8-9.2c2.9-10.1,11.9-16.5,22.5-16
	c9.9,0.5,18.5,8.2,20.1,18.3c0.4,2.3,0.3,4.7,0.3,7.1c0.1,20.1,0,40.2,0.2,60.3c0.3,24.8,0.1,49.7,0.4,74.5
	c0.1,8.8,0.1,17.6,0.2,26.3c0,0.9,0.3,1.5,1,2.1c9,6.9,14.4,15.9,15.6,27.3c2.3,20.6-11.9,39.4-32.3,42.9
	C69,271.3,66.7,271.5,64.8,271.5z M78.8,170.3c0-11.9,0-23.9,0-35.8c0-1.6-0.5-1.9-2-1.9c-8.3,0.1-16.7,0.1-25,0
	c-1.6,0-2.2,0.3-2.2,2.1c0.1,23.8,0,47.5,0.1,71.3c0,1.5-0.4,2.4-1.6,3.4c-8.5,6.6-12.4,15.2-11.2,26c1.8,15.6,16.4,26.7,31.9,24.3
	c11.4-1.8,20.7-10.4,23.2-21.5c2.6-11.5-2.1-23.1-11.9-29.6c-1.1-0.7-1.4-1.5-1.4-2.7C78.8,193.9,78.8,182.1,78.8,170.3z M64.4,34.3
	c-2.8,0-5.5,0-8.3,0c-2.2,0-3.3,0.9-3.2,2.5c0,1.6,1.1,2.4,3.2,2.4c5.6,0,11.1,0,16.7,0c2.1,0,3.1-0.9,3.1-2.5
	c0-1.6-1.1-2.5-3.1-2.5C70,34.3,67.2,34.3,64.4,34.3z M64.3,88.3c2.8,0,5.6,0,8.4,0c2,0,3.1-0.9,3.1-2.5c0-1.6-1.1-2.5-3.1-2.5
	c-5.6,0-11.2,0-16.8,0c-2,0-3.1,0.9-3.1,2.5c0,1.5,1.1,2.4,3,2.4C58.7,88.3,61.5,88.3,64.3,88.3z M64.5,58.9c-2.9,0-5.9,0-8.8,0
	c-1.9,0-2.8,0.8-2.9,2.3c0,1.6,0.9,2.4,2.8,2.4c5.9,0,11.7,0,17.6,0c1.8,0,2.7-0.8,2.7-2.3c0-1.6-0.9-2.4-2.8-2.4
	C70.3,58.9,67.4,58.9,64.5,58.9z M64.3,107.9c-2.9,0-5.7,0-8.6,0c-1.9,0-2.8,0.8-2.8,2.4c0,1.6,0.9,2.4,2.8,2.4c5.8,0,11.6,0,17.4,0
	c1.9,0,2.8-0.8,2.8-2.4c0-1.6-0.9-2.4-2.8-2.4C70.2,107.9,67.2,107.9,64.3,107.9z"/>
<path class="st1" d="M78.8,170.3c0,11.8,0,23.7,0,35.5c0,1.3,0.3,2,1.4,2.7c9.8,6.5,14.4,18.1,11.9,29.6
	c-2.5,11.1-11.8,19.7-23.2,21.5c-15.5,2.4-30.1-8.7-31.9-24.3c-1.3-10.7,2.7-19.4,11.2-26c1.2-1,1.6-1.9,1.6-3.4
	c0-23.8,0-47.5-0.1-71.3c0-1.8,0.5-2.1,2.2-2.1c8.3,0.1,16.7,0.1,25,0c1.5,0,2,0.3,2,1.9C78.8,146.4,78.8,158.3,78.8,170.3z"/>
<path class="st2" d="M123.4,194.8c28.9-28.9,28.9-75.6,0-104.5"/>
<path class="st2" d="M167.8,242.3c55.2-55.2,55.2-144.4,0-199.6"/>
<path class="st2" d="M206.1,277.2c74.4-74.4,74.4-194.9,0-269.3"/>
<g>
</g>
<g>
</g>
<g>
</g>
<g>
</g>
<g>
</g>
<g>
</g>
</svg>
